 http://kastatic.com/i2/u/1813980/0aq32UMZvX.gif

Cover 
http://www.shotpix.com/images/67299212065448475620.jpg

General
Complete name                            : Cheryl Cole - Parachute [Music Video] 720p [Sbyky].avi
Format                                   : AVI
Format/Info                              : Audio Video Interleave
File size                                : 99.0 MiB
Duration                                 : 3mn 43s
Overall bit rate                         : 3 723 Kbps

Video
ID                                       : 0
Format                                   : AVC
Format/Info                              : Advanced Video Codec
Format profile                           : High@L5.1
Format settings, CABAC                   : Yes
Format settings, ReFrames                : 2 frames
Codec ID                                 : H264
Duration                                 : 3mn 43s
Bit rate                                 : 3 393 Kbps
Width                                    : 1 280 pixels
Height                                   : 720 pixels
Display aspect ratio                     : 16:9
Frame rate                               : 25.000 fps
Color space                              : YUV
Chroma subsampling                       : 4:2:0
Bit depth                                : 8 bits
Scan type                                : Progressive
Bits/(Pixel*Frame)                       : 0.147
Stream size                              : 90.2 MiB (91%)

Audio
ID                                       : 1
Format                                   : MPEG Audio
Format version                           : Version 1
Format profile                           : Layer 3
Codec ID                                 : 55
Codec ID/Hint                            : MP3
Duration                                 : 3mn 43s
Bit rate mode                            : Constant
Bit rate                                 : 320 Kbps
Channel(s)                               : 2 channels
Sampling rate                            : 44.1 KHz
Compression mode                         : Lossy
Stream size                              : 8.51 MiB (9%)
Alignment                                : Aligned on interleaves
Interleave, duration                     : 41 ms (1.02 video frame)
Interleave, preload duration             : 130 ms
Writing library                          : LAMELAME_MAJOR_VERSI

Shared By Sbyky 
http://kastatic.com/i2/u/1813980/bQg62viaEG.gif